<?xml version="1.0" encoding="UTF-8" standalone="no"?><!DOCTYPE svg PUBLIC "-//W3C//DTD SVG 1.1//EN" "http://www.w3.org/Graphics/SVG/1.1/DTD/svg11.dtd"><!-- Generated by graphviz version 2.40.1 (20161225.0304)
 --><!-- Title: G Pages: 1 --><svg xmlns="http://www.w3.org/2000/svg" xmlns:xlink="http://www.w3.org/1999/xlink" width="765pt" height="44pt" viewBox="0.00 0.00 764.79 44.00">
<g id="graph0" class="graph" transform="scale(1 1) rotate(0) translate(4 40)">
<title>G</title>
<polygon fill="#ffffff" stroke="transparent" points="-4,4 -4,-40 760.785,-40 760.785,4 -4,4"/>
<!-- 定时抓取任务 -->
<g id="node1" class="node">
<title>定时抓取任务</title>
<ellipse fill="none" stroke="#000000" cx="65.0352" cy="-18" rx="65.0705" ry="18"/>
<text text-anchor="middle" x="65.0352" y="-13.8" font-family="Times,serif" font-size="14.00" fill="#000000">定时抓取任务</text>
</g>
<!-- 过滤算法 -->
<g id="node2" class="node">
<title>过滤算法</title>
<ellipse fill="none" stroke="#000000" cx="218.4155" cy="-18" rx="52.1906" ry="18"/>
<text text-anchor="middle" x="218.4155" y="-13.8" font-family="Times,serif" font-size="14.00" fill="#000000">过滤算法</text>
</g>
<!-- 定时抓取任务&#45;&gt;过滤算法 -->
<g id="edge1" class="edge">
<title>定时抓取任务-&gt;过滤算法</title>
<path fill="none" stroke="#000000" d="M130.0823,-18C138.5571,-18 147.2261,-18 155.6623,-18"/>
<polygon fill="#000000" stroke="#000000" points="155.8085,-21.5001 165.8085,-18 155.8084,-14.5001 155.8085,-21.5001"/>
</g>
<!-- 去重 -->
<g id="node3" class="node">
<title>去重</title>
<ellipse fill="none" stroke="#000000" cx="339.2539" cy="-18" rx="32.4865" ry="18"/>
<text text-anchor="middle" x="339.2539" y="-13.8" font-family="Times,serif" font-size="14.00" fill="#000000">去重</text>
</g>
<!-- 过滤算法&#45;&gt;去重 -->
<g id="edge2" class="edge">
<title>过滤算法-&gt;去重</title>
<path fill="none" stroke="#000000" d="M271.0655,-18C279.5621,-18 288.2672,-18 296.4934,-18"/>
<polygon fill="#000000" stroke="#000000" points="296.6056,-21.5001 306.6055,-18 296.6055,-14.5001 296.6056,-21.5001"/>
</g>
<!-- 信息组合 -->
<g id="node4" class="node">
<title>信息组合</title>
<ellipse fill="none" stroke="#000000" cx="455.7958" cy="-18" rx="48.0974" ry="18"/>
<text text-anchor="middle" x="455.7958" y="-13.8" font-family="Times,serif" font-size="14.00" fill="#000000">信息组合</text>
</g>
<!-- 去重&#45;&gt;信息组合 -->
<g id="edge3" class="edge">
<title>去重-&gt;信息组合</title>
<path fill="none" stroke="#000000" d="M372.0274,-18C379.9633,-18 388.6852,-18 397.4104,-18"/>
<polygon fill="#000000" stroke="#000000" points="397.6078,-21.5001 407.6078,-18 397.6077,-14.5001 397.6078,-21.5001"/>
</g>
<!-- 文档生成 -->
<g id="node5" class="node">
<title>文档生成</title>
<ellipse fill="none" stroke="#000000" cx="583.0666" cy="-18" rx="43.4454" ry="18"/>
<text text-anchor="middle" x="583.0666" y="-13.8" font-family="Times,serif" font-size="14.00" fill="#000000">文档生成</text>
</g>
<!-- 信息组合&#45;&gt;文档生成 -->
<g id="edge4" class="edge">
<title>信息组合-&gt;文档生成</title>
<path fill="none" stroke="#000000" d="M503.9115,-18C512.2189,-18 520.9021,-18 529.3465,-18"/>
<polygon fill="#000000" stroke="#000000" points="529.4871,-21.5001 539.487,-18 529.487,-14.5001 529.4871,-21.5001"/>
</g>
<!-- 排序算法 -->
<g id="node6" class="node">
<title>排序算法</title>
<ellipse fill="none" stroke="#000000" cx="709.5369" cy="-18" rx="47.4975" ry="18"/>
<text text-anchor="middle" x="709.5369" y="-13.8" font-family="Times,serif" font-size="14.00" fill="#000000">排序算法</text>
</g>
<!-- 文档生成&#45;&gt;排序算法 -->
<g id="edge5" class="edge">
<title>文档生成-&gt;排序算法</title>
<path fill="none" stroke="#000000" d="M626.5905,-18C634.7182,-18 643.3285,-18 651.8059,-18"/>
<polygon fill="#000000" stroke="#000000" points="652.0392,-21.5001 662.0392,-18 652.0392,-14.5001 652.0392,-21.5001"/>
</g>
</g>
</svg>